<?xml version="1.0" encoding="UTF-8"?>
<svg id="_レイヤー_2" data-name="レイヤー 2" xmlns="http://www.w3.org/2000/svg" viewBox="0 0 666.29 666.29">
  <defs>
    <style>
      .cls-1 {
        fill: #e3fbd0;
      }

      .cls-2 {
        fill: #c59cef;
      }

      .cls-3 {
        fill: none;
        stroke: #000;
        stroke-miterlimit: 10;
        stroke-width: 13px;
      }

      .cls-4 {
        fill: #abddeb;
      }

      .cls-5 {
        fill: #aecba2;
      }
    </style>
  </defs>
  <g id="_3連" data-name="3連">
    <g id="_レイヤー_5" data-name="レイヤー 5">
      <g>
        <g>
          <polygon class="cls-5" points="455.93 332.45 456.58 333.14 455.93 333.83 438.25 343.35 433.39 333.64 433.14 333.14 438.25 322.93 455.93 332.45"/>
          <polygon class="cls-5" points="433.14 333.14 433.39 333.64 420.39 346.61 413.5 333.67 420.52 320.52 433.14 333.14"/>
          <polygon class="cls-5" points="228.03 322.93 233.14 333.14 228.03 343.35 210.35 333.83 209.7 333.14 210.35 332.45 228.03 322.93"/>
          <polygon class="cls-5" points="253.06 333.14 246.14 346.14 233.14 333.14 246.14 320.14 253.06 333.14"/>
          <polygon class="cls-5" points="343.35 228.03 333.14 233.14 322.93 228.03 332.45 210.35 333.14 209.7 333.83 210.35 343.35 228.03"/>
          <polygon class="cls-5" points="346.14 246.14 333.14 253.06 320.14 246.14 333.14 233.14 346.14 246.14"/>
          <polygon class="cls-5" points="346.49 420.32 333.64 433.14 333.14 433.14 320.42 420.42 333.56 413.45 346.49 420.32"/>
          <polygon class="cls-5" points="333.64 433.14 343.45 438.06 333.83 455.93 333.27 456.45 332.17 455.41 322.93 438.25 333.14 433.14 333.64 433.14"/>
          <polygon class="cls-5" points="373.19 333.14 361.88 354.4 354.4 361.88 333.14 373.19 311.88 361.88 304.4 354.4 293.09 333.14 304.4 311.88 311.88 304.4 333.14 293.09 354.4 304.4 361.88 311.88 373.19 333.14"/>
          <polygon class="cls-5" points="398.81 267.47 396.97 285.91 393.69 285.25 385.43 280.85 381.03 272.59 380.37 269.31 398.81 267.47"/>
          <polygon class="cls-5" points="396.97 380.37 398.81 398.81 380.37 396.97 380.75 395.07 385.69 385.82 395.34 380.7 396.97 380.37"/>
          <polygon class="cls-5" points="285.91 396.97 267.47 398.81 269.31 380.37 272.59 381.03 280.85 385.43 285.25 393.69 285.91 396.97"/>
          <polygon class="cls-5" points="285.91 269.31 285.25 272.59 280.85 280.85 272.59 285.25 269.31 285.91 267.47 267.47 285.91 269.31"/>
          <polygon class="cls-2" points="316.99 225.06 303.9 237.51 292.65 235.61 296.78 214.96 316.99 225.06"/>
          <polygon class="cls-2" points="369.5 214.96 373.63 235.61 362.38 237.51 349.29 225.06 369.5 214.96"/>
          <polygon class="cls-2" points="451.32 296.78 441.22 316.99 429.16 304.31 428.77 303.9 430.67 292.65 451.32 296.78"/>
          <polygon class="cls-2" points="441.22 349.29 451.32 369.5 430.66 373.64 428.86 362.93 428.77 362.38 441.22 349.29"/>
          <polygon class="cls-2" points="373.68 430.45 369.54 451.14 349.45 441.07 362.38 428.77 362.86 428.62 373.68 430.45"/>
          <polygon class="cls-2" points="304.38 428.92 317.18 441.12 296.78 451.32 292.65 430.67 303.9 428.77 304.38 428.92"/>
          <polygon class="cls-2" points="225.06 349.29 237.51 362.38 235.61 373.63 214.96 369.5 225.06 349.29"/>
          <polygon class="cls-2" points="235.61 292.65 237.51 303.9 225.06 316.99 214.96 296.78 235.61 292.65"/>
          <polygon class="cls-2" points="633.14 333.14 504.84 358.8 457.2 333.14 504.84 307.48 633.14 333.14"/>
          <polygon class="cls-4" points="620.03 245.43 504.84 307.48 484.8 303.47 531.62 254.24 620.03 245.43"/>
          <polygon class="cls-4" points="620.03 420.85 531.62 412.04 484.8 362.81 504.84 358.8 620.03 420.85"/>
          <polygon class="cls-2" points="582.88 200.35 531.62 254.24 469.49 260.43 491.87 215.69 582.88 200.35"/>
          <polygon class="cls-2" points="531.62 412.04 582.88 465.93 491.81 450.49 469.49 405.85 531.62 412.04"/>
          <polygon class="cls-4" points="533.14 133.14 491.87 215.69 442.23 224.05 450.59 174.41 533.14 133.14"/>
          <polygon class="cls-4" points="491.81 450.49 533.14 533.14 450.57 491.75 442.2 442.07 491.81 450.49"/>
          <polygon class="cls-1" points="531.62 254.24 484.8 303.47 451.32 296.78 469.49 260.43 531.62 254.24"/>
          <polygon class="cls-1" points="484.8 362.81 531.62 412.04 469.49 405.85 451.32 369.5 484.8 362.81"/>
          <polygon class="cls-5" points="491.87 215.69 469.49 260.43 435.53 263.82 442.23 224.05 491.87 215.69"/>
          <polygon class="cls-5" points="469.49 405.85 491.81 450.49 442.2 442.07 435.52 402.46 469.49 405.85"/>
          <polygon class="cls-5" points="456.79 333.36 484.8 362.81 451.32 369.5 441.22 349.29 455.93 333.83 456.79 333.36"/>
          <polygon class="cls-5" points="484.8 303.47 456.79 332.92 455.93 332.45 441.22 316.99 451.32 296.78 484.8 303.47"/>
          <polygon class="cls-4" points="451.32 369.5 469.49 405.85 435.52 402.46 430.66 373.64 451.32 369.5"/>
          <polygon class="cls-4" points="469.49 260.43 451.32 296.78 430.67 292.65 435.53 263.82 469.49 260.43"/>
          <polygon class="cls-2" points="465.93 83.4 450.59 174.41 405.85 196.79 412.04 134.66 465.93 83.4"/>
          <polygon class="cls-2" points="450.57 491.75 465.93 582.88 412.03 531.51 405.83 469.33 450.57 491.75"/>
          <polygon class="cls-5" points="405.85 196.79 450.59 174.41 442.23 224.05 402.46 230.75 405.85 196.79"/>
          <polygon class="cls-5" points="442.2 442.07 450.57 491.75 405.83 469.33 402.45 435.33 442.2 442.07"/>
          <polygon class="cls-2" points="442.23 224.05 435.53 263.82 398.81 267.47 402.46 230.75 442.23 224.05"/>
          <polygon class="cls-2" points="435.52 402.46 442.2 442.07 402.45 435.33 398.81 398.81 435.52 402.46"/>
          <polygon class="cls-1" points="435.53 263.82 430.67 292.65 396.97 285.91 398.81 267.47 435.53 263.82"/>
          <polygon class="cls-1" points="430.66 373.64 435.52 402.46 398.81 398.81 396.97 380.37 430.66 373.64"/>
          <polygon class="cls-4" points="420.85 46.25 412.04 134.66 362.81 181.48 358.8 161.44 420.85 46.25"/>
          <polygon class="cls-4" points="412.03 531.51 420.85 620.03 358.8 504.84 362.84 484.63 412.03 531.51"/>
          <polygon class="cls-4" points="395.57 299.94 413.5 333.67 396.28 365.96 395.57 366.34 385.42 333.14 395.57 299.94"/>
          <polygon class="cls-1" points="412.04 134.66 405.85 196.79 369.5 214.96 362.81 181.48 412.04 134.66"/>
          <polygon class="cls-1" points="405.83 469.33 412.03 531.51 362.84 484.63 369.54 451.14 405.83 469.33"/>
          <polygon class="cls-4" points="405.85 196.79 402.46 230.75 373.63 235.61 369.5 214.96 405.85 196.79"/>
          <polygon class="cls-4" points="402.45 435.33 405.83 469.33 369.54 451.14 373.68 430.45 402.45 435.33"/>
          <polygon class="cls-1" points="373.63 235.61 402.46 230.75 398.81 267.47 380.37 269.31 373.63 235.61"/>
          <polygon class="cls-1" points="402.45 435.33 373.68 430.45 380.37 396.97 398.81 398.81 402.45 435.33"/>
          <polygon class="cls-2" points="380.95 318.52 359.28 307 347.76 285.33 373.18 293.1 380.95 318.52"/>
          <polygon class="cls-2" points="359.28 359.28 380.95 347.76 373.18 373.18 347.76 380.95 359.28 359.28"/>
          <polygon class="cls-5" points="349.45 441.07 369.54 451.14 362.84 484.63 333.45 456.63 333.83 455.93 349.45 441.07"/>
          <polygon class="cls-5" points="362.81 181.48 369.5 214.96 349.29 225.06 333.83 210.35 333.36 209.49 362.81 181.48"/>
          <polygon class="cls-4" points="366.34 395.57 365.96 396.27 333.56 413.45 299.94 395.57 333.14 385.42 366.34 395.57"/>
          <polygon class="cls-4" points="366.34 270.71 333.14 280.86 299.94 270.71 333.14 253.06 366.34 270.71"/>
          <polygon class="cls-2" points="333.14 33.14 358.8 161.44 333.14 209.08 307.48 161.44 333.14 33.14"/>
          <polygon class="cls-2" points="333.14 457.2 358.8 504.84 333.14 633.14 307.48 504.84 333.14 457.2"/>
          <polygon class="cls-5" points="332.92 209.49 332.45 210.35 316.99 225.06 296.78 214.96 303.47 181.48 332.92 209.49"/>
          <polygon class="cls-5" points="332.92 456.79 303.47 484.8 296.78 451.32 317.18 441.12 332.17 455.41 332.92 456.79"/>
          <polygon class="cls-2" points="318.52 285.33 307 307 285.33 318.52 293.1 293.1 318.52 285.33"/>
          <polygon class="cls-2" points="318.52 380.95 293.1 373.18 285.33 347.76 307 359.28 318.52 380.95"/>
          <polygon class="cls-4" points="303.47 484.8 307.48 504.84 245.43 620.03 254.24 531.62 303.47 484.8"/>
          <polygon class="cls-4" points="245.43 46.25 307.48 161.44 303.47 181.48 254.24 134.66 245.43 46.25"/>
          <polygon class="cls-1" points="296.78 451.32 303.47 484.8 254.24 531.62 260.43 469.49 296.78 451.32"/>
          <polygon class="cls-1" points="303.47 181.48 296.78 214.96 260.43 196.79 254.24 134.66 303.47 181.48"/>
          <polygon class="cls-4" points="296.78 214.96 292.65 235.61 263.82 230.75 260.43 196.79 296.78 214.96"/>
          <polygon class="cls-4" points="296.78 451.32 260.43 469.49 263.82 435.53 292.65 430.67 296.78 451.32"/>
          <polygon class="cls-1" points="292.65 235.61 285.91 269.31 267.47 267.47 263.82 230.75 292.65 235.61"/>
          <polygon class="cls-1" points="292.65 430.67 263.82 435.53 267.47 398.81 285.91 396.97 292.65 430.67"/>
          <polygon class="cls-4" points="270.71 299.94 280.86 333.14 270.71 366.34 253.06 333.14 270.71 299.94"/>
          <polygon class="cls-1" points="269.31 380.37 267.47 398.81 230.75 402.46 235.61 373.63 269.31 380.37"/>
          <polygon class="cls-1" points="267.47 267.47 269.31 285.91 235.61 292.65 230.75 263.82 267.47 267.47"/>
          <polygon class="cls-2" points="267.47 398.81 263.82 435.53 224.05 442.23 230.75 402.46 267.47 398.81"/>
          <polygon class="cls-2" points="263.82 230.75 267.47 267.47 230.75 263.82 224.05 224.05 263.82 230.75"/>
          <polygon class="cls-5" points="263.82 230.75 224.05 224.05 215.69 174.41 260.43 196.79 263.82 230.75"/>
          <polygon class="cls-5" points="263.82 435.53 260.43 469.49 215.69 491.87 224.05 442.23 263.82 435.53"/>
          <polygon class="cls-2" points="215.69 491.87 260.43 469.49 254.24 531.62 200.35 582.88 215.69 491.87"/>
          <polygon class="cls-2" points="254.24 134.66 260.43 196.79 215.69 174.41 200.35 83.4 254.24 134.66"/>
          <polygon class="cls-4" points="235.61 373.63 230.75 402.46 196.79 405.85 214.96 369.5 235.61 373.63"/>
          <polygon class="cls-4" points="230.75 263.82 235.61 292.65 214.96 296.78 196.79 260.43 230.75 263.82"/>
          <polygon class="cls-5" points="230.75 402.46 224.05 442.23 174.41 450.59 196.79 405.85 230.75 402.46"/>
          <polygon class="cls-5" points="224.05 224.05 230.75 263.82 196.79 260.43 174.41 215.69 224.05 224.05"/>
          <polygon class="cls-5" points="225.06 349.29 214.96 369.5 181.48 362.81 209.49 333.36 210.35 333.83 225.06 349.29"/>
          <polygon class="cls-5" points="214.96 296.78 225.06 316.99 210.35 332.45 209.49 332.92 181.48 303.47 214.96 296.78"/>
          <polygon class="cls-4" points="224.05 442.23 215.69 491.87 133.14 533.14 174.41 450.59 224.05 442.23"/>
          <polygon class="cls-4" points="215.69 174.41 224.05 224.05 174.41 215.69 133.14 133.14 215.69 174.41"/>
          <polygon class="cls-1" points="214.96 369.5 196.79 405.85 134.66 412.04 181.48 362.81 214.96 369.5"/>
          <polygon class="cls-1" points="196.79 260.43 214.96 296.78 181.48 303.47 134.66 254.24 196.79 260.43"/>
          <polygon class="cls-2" points="209.08 333.14 161.44 358.8 33.14 333.14 161.44 307.48 209.08 333.14"/>
          <polygon class="cls-2" points="196.79 260.43 134.66 254.24 83.4 200.35 174.41 215.69 196.79 260.43"/>
          <polygon class="cls-2" points="196.79 405.85 174.41 450.59 83.4 465.93 134.66 412.04 196.79 405.85"/>
          <polygon class="cls-4" points="181.48 303.47 161.44 307.48 46.25 245.43 134.66 254.24 181.48 303.47"/>
          <polygon class="cls-4" points="181.48 362.81 134.66 412.04 46.25 420.85 161.44 358.8 181.48 362.81"/>
        </g>
        <g>
          <polygon class="cls-3" points="333.14 283.14 326.64 289.64 311.88 304.4 304.4 311.88 289.64 326.64 283.14 333.14 289.64 339.64 304.4 354.4 311.88 361.88 326.64 376.64 333.14 383.14 339.64 376.64 354.4 361.88 361.88 354.4 376.64 339.64 383.14 333.14 376.64 326.64 361.88 311.88 354.4 304.4 339.64 289.64 333.14 283.14"/>
          <polygon class="cls-3" points="333.14 233.14 343.35 228.03 349.29 225.06 369.5 214.96 405.85 196.79 450.59 174.41 533.14 133.14 491.87 215.69 469.49 260.43 451.32 296.78 441.22 316.99 438.25 322.93 433.14 333.14 420.52 320.52 405.04 305.04 395.97 295.97 390.61 290.61 383.14 283.14 375.67 275.67 370.31 270.31 361.24 261.24 346.14 246.14 333.14 233.14"/>
          <polygon class="cls-3" points="233.14 333.14 228.03 343.35 225.06 349.29 214.96 369.5 196.79 405.85 174.41 450.59 133.14 533.14 215.69 491.87 260.43 469.49 296.78 451.32 317.18 441.12 322.93 438.25 333.14 433.14 320.42 420.42 305.04 405.04 295.97 395.97 290.61 390.61 283.14 383.14 275.67 375.67 270.31 370.31 261.24 361.24 246.14 346.14 233.14 333.14"/>
          <polygon class="cls-3" points="215.69 174.41 133.14 133.14 174.41 215.69 196.79 260.43 214.96 296.78 225.06 316.99 228.03 322.93 233.14 333.14 246.14 320.14 261.24 305.04 270.31 295.97 275.67 290.61 283.14 283.14 290.61 275.67 295.97 270.31 305.04 261.24 320.14 246.14 333.14 233.14 322.93 228.03 316.99 225.06 296.78 214.96 260.43 196.79 215.69 174.41"/>
          <polygon class="cls-3" points="491.81 450.49 533.14 533.14 450.57 491.75 405.83 469.33 369.54 451.14 349.45 441.07 343.45 438.06 333.64 433.14 346.49 420.32 360.57 406.27 370.85 396.02 375.86 391.03 382.98 383.92 383.92 382.98 390.93 376 396.03 370.91 406.52 360.44 420.39 346.61 433.39 333.64 438.25 343.35 441.22 349.29 451.32 369.5 469.49 405.85 491.81 450.49"/>
          <polygon class="cls-3" points="358.8 161.44 333.14 33.14 307.48 161.44 303.47 181.48 296.78 214.96 292.65 235.61 285.91 269.31 285.25 272.59 283.92 279.22 283.14 283.14 296.14 283.14 325.67 283.14 333.14 283.14 340.61 283.14 370.14 283.14 383.14 283.14 382.36 279.22 381.03 272.59 380.37 269.31 373.63 235.61 369.5 214.96 362.81 181.48 358.8 161.44"/>
          <polygon class="cls-3" points="504.84 358.8 633.14 333.14 504.84 307.48 484.8 303.47 451.32 296.78 430.67 292.65 396.97 285.91 393.69 285.25 387.06 283.92 383.14 283.14 383.14 296.14 383.14 325.67 383.14 333.14 383.14 340.61 383.14 370.14 383.14 383.14 383.92 382.98 387.59 382.25 395.34 380.7 396.97 380.37 430.66 373.64 451.32 369.5 484.8 362.81 504.84 358.8"/>
          <polygon class="cls-3" points="358.8 504.84 333.14 633.14 307.48 504.84 303.47 484.8 296.78 451.32 292.65 430.67 285.91 396.97 285.25 393.69 283.92 387.06 283.14 383.14 296.14 383.14 325.67 383.14 333.14 383.14 340.61 383.14 370.14 383.14 383.14 383.14 382.98 383.92 382.24 387.64 380.75 395.07 380.37 396.97 373.68 430.45 369.54 451.14 362.84 484.63 358.8 504.84"/>
          <polygon class="cls-3" points="161.44 358.8 33.14 333.14 161.44 307.48 181.48 303.47 214.96 296.78 235.61 292.65 269.31 285.91 272.59 285.25 279.22 283.92 283.14 283.14 283.14 296.14 283.14 325.67 283.14 333.14 283.14 340.61 283.14 370.14 283.14 383.14 279.22 382.36 272.59 381.03 269.31 380.37 235.61 373.63 214.96 369.5 181.48 362.81 161.44 358.8"/>
          <polyline class="cls-3" points="347.76 380.95 359.28 359.28 361.88 354.4 373.19 333.14 376.64 326.64 380.96 318.53 380.96 318.52 380.95 318.52 359.28 307 354.4 304.4 333.14 293.09 326.64 289.64 318.53 285.32 318.52 285.32 318.52 285.33 307 307 304.4 311.88 293.09 333.14 289.64 339.64 285.32 347.75"/>
          <polyline class="cls-3" points="285.33 347.76 307 359.28 311.88 361.88 333.14 373.19 339.64 376.64 347.75 380.96"/>
          <polygon class="cls-3" points="303.9 237.51 316.99 225.06 332.45 210.35 333.14 209.7 333.36 209.49 362.81 181.48 412.04 134.66 465.93 83.4 450.59 174.41 442.23 224.05 435.53 263.82 430.67 292.65 428.77 303.9 396.87 286.94 393.69 285.25 385.43 280.85 382.36 279.22 375.67 275.67 366.34 270.71 333.14 253.06 320.14 246.14 314.72 243.26 303.9 237.51"/>
          <polygon class="cls-3" points="237.51 362.38 235.61 373.63 230.75 402.46 224.05 442.23 215.69 491.87 200.35 582.88 254.24 531.62 303.47 484.8 332.92 456.79 333.27 456.45 333.83 455.93 349.45 441.07 362.38 428.77 351.56 423.02 346.49 420.32 333.56 413.45 299.94 395.57 290.61 390.61 283.92 387.06 280.85 385.43 272.59 381.03 269.41 379.34 237.51 362.38"/>
          <polygon class="cls-3" points="174.41 215.69 83.4 200.35 134.66 254.24 181.48 303.47 209.49 332.92 209.7 333.14 210.35 333.83 225.06 349.29 237.51 362.38 243.26 351.56 246.14 346.14 253.06 333.14 270.71 299.94 275.67 290.61 279.22 283.92 280.85 280.85 285.25 272.59 286.94 269.41 303.9 237.51 292.65 235.61 263.82 230.75 224.05 224.05 174.41 215.69"/>
          <polygon class="cls-3" points="531.62 412.04 582.88 465.93 491.81 450.49 442.2 442.07 402.45 435.33 373.68 430.45 362.86 428.62 379.77 396.91 380.75 395.07 385.69 385.82 387.59 382.25 390.93 376 395.65 367.14 396.28 365.96 413.5 333.67 420.52 320.52 423.47 314.97 429.16 304.31 441.22 316.99 455.93 332.45 456.58 333.14 456.79 333.36 484.8 362.81 531.62 412.04"/>
          <polygon class="cls-3" points="307.48 161.44 245.43 46.25 254.24 134.66 260.43 196.79 263.82 230.75 267.47 267.47 269.31 285.91 269.41 286.94 270.31 295.97 270.71 299.94 283.14 296.14 293.1 293.1 318.52 285.33 318.53 285.32 325.67 283.14 333.14 280.86 366.34 270.71 361.24 261.24 351.56 243.26 343.35 228.03 333.83 210.35 333.36 209.49 333.14 209.08 307.48 161.44"/>
          <polygon class="cls-3" points="504.84 307.48 620.03 245.43 531.62 254.24 469.49 260.43 435.53 263.82 398.81 267.47 380.37 269.31 379.34 269.41 370.31 270.31 366.34 270.71 370.14 283.14 373.18 293.1 380.95 318.52 380.96 318.53 383.14 325.67 385.42 333.14 395.57 366.34 396.28 365.96 406.52 360.44 423.02 351.56 438.25 343.35 455.93 333.83 456.79 333.36 457.2 333.14 504.84 307.48"/>
          <polygon class="cls-3" points="412.03 531.51 420.85 620.03 358.8 504.84 333.14 457.2 332.92 456.79 332.17 455.41 322.93 438.25 314.9 423.34 305.04 405.04 299.94 395.57 333.14 385.42 340.61 383.14 347.75 380.96 347.76 380.95 373.18 373.18 383.14 370.14 395.57 366.34 395.65 367.14 396.03 370.91 396.92 379.86 396.97 380.37 398.81 398.81 402.45 435.33 405.83 469.33 412.03 531.51"/>
          <polygon class="cls-3" points="134.66 412.04 46.25 420.85 161.44 358.8 209.08 333.14 209.49 332.92 210.35 332.45 228.03 322.93 243.26 314.72 261.24 305.04 270.71 299.94 280.86 333.14 283.14 340.61 285.32 347.75 285.33 347.76 293.1 373.18 296.14 383.14 299.94 395.57 295.97 395.97 286.94 396.87 285.91 396.97 267.47 398.81 230.75 402.46 196.79 405.85 134.66 412.04"/>
          <polyline class="cls-3" points="380.96 347.75 376.64 339.64 373.19 333.14 361.88 311.88 359.28 307 347.76 285.33 347.76 285.32 347.75 285.32 339.64 289.64 333.14 293.09 311.88 304.4 307 307 285.33 318.52 285.32 318.52 285.32 318.53 289.64 326.64 293.09 333.14 304.4 354.4 307 359.28 318.52 380.95"/>
          <polyline class="cls-3" points="318.53 380.96 326.64 376.64 333.14 373.19 354.4 361.88 359.28 359.28 380.95 347.76"/>
          <polygon class="cls-3" points="362.38 237.51 373.63 235.61 402.46 230.75 442.23 224.05 491.87 215.69 582.88 200.35 531.62 254.24 484.8 303.47 456.79 332.92 456.58 333.14 455.93 333.83 441.22 349.29 428.77 362.38 423.02 351.56 420.39 346.61 413.5 333.67 395.57 299.94 390.61 290.61 387.06 283.92 385.43 280.85 381.03 272.59 379.34 269.41 362.38 237.51"/>
          <polygon class="cls-3" points="237.51 303.9 225.06 316.99 210.35 332.45 209.7 333.14 209.49 333.36 181.48 362.81 134.66 412.04 83.4 465.93 174.41 450.59 224.05 442.23 263.82 435.53 292.65 430.67 303.9 428.77 286.94 396.87 285.25 393.69 280.85 385.43 279.22 382.36 275.67 375.67 270.71 366.34 253.06 333.14 246.14 320.14 243.26 314.72 237.51 303.9"/>
          <polygon class="cls-3" points="254.24 134.66 200.35 83.4 215.69 174.41 224.05 224.05 230.75 263.82 235.61 292.65 237.51 303.9 269.41 286.94 272.59 285.25 280.85 280.85 283.92 279.22 290.61 275.67 299.94 270.71 333.14 253.06 346.14 246.14 351.56 243.26 362.38 237.51 349.29 225.06 333.83 210.35 333.14 209.7 332.92 209.49 303.47 181.48 254.24 134.66"/>
          <polygon class="cls-3" points="450.57 491.75 465.93 582.88 412.03 531.51 362.84 484.63 333.45 456.63 333.27 456.45 332.17 455.41 317.18 441.12 304.38 428.92 314.9 423.34 320.42 420.42 333.56 413.45 365.96 396.27 367.14 395.65 375.86 391.03 382.24 387.64 385.69 385.82 395.34 380.7 396.92 379.86 428.86 362.93 430.66 373.64 435.52 402.46 442.2 442.07 450.57 491.75"/>
          <polygon class="cls-3" points="412.04 134.66 420.85 46.25 358.8 161.44 333.14 209.08 332.92 209.49 332.45 210.35 322.93 228.03 314.72 243.26 305.04 261.24 299.94 270.71 333.14 280.86 340.61 283.14 347.75 285.32 347.76 285.33 373.18 293.1 383.14 296.14 395.57 299.94 395.97 295.97 396.87 286.94 396.97 285.91 398.81 267.47 402.46 230.75 405.85 196.79 412.04 134.66"/>
          <polygon class="cls-3" points="531.62 412.04 620.03 420.85 504.84 358.8 457.2 333.14 456.79 332.92 455.93 332.45 438.25 322.93 423.47 314.97 405.04 305.04 395.57 299.94 385.42 333.14 383.14 340.61 380.96 347.75 380.95 347.76 373.18 373.18 370.14 383.14 366.34 395.57 367.14 395.65 370.85 396.02 379.77 396.91 380.37 396.97 398.81 398.81 435.52 402.46 469.49 405.85 531.62 412.04"/>
          <polygon class="cls-3" points="307.48 504.84 245.43 620.03 254.24 531.62 260.43 469.49 263.82 435.53 267.47 398.81 269.31 380.37 269.41 379.34 270.31 370.31 270.71 366.34 283.14 370.14 293.1 373.18 318.52 380.95 318.53 380.96 325.67 383.14 333.14 385.42 366.34 395.57 365.96 396.27 360.57 406.27 351.56 423.02 343.45 438.06 333.83 455.93 333.45 456.63 333.14 457.2 307.48 504.84"/>
          <polygon class="cls-3" points="161.44 307.48 46.25 245.43 134.66 254.24 196.79 260.43 230.75 263.82 267.47 267.47 285.91 269.31 286.94 269.41 295.97 270.31 299.94 270.71 296.14 283.14 293.1 293.1 285.33 318.52 285.32 318.53 283.14 325.67 280.86 333.14 270.71 366.34 261.24 361.24 243.26 351.56 228.03 343.35 210.35 333.83 209.49 333.36 209.08 333.14 161.44 307.48"/>
        </g>
      </g>
    </g>
  </g>
</svg>